<?xml version="1.0" encoding="UTF-8" standalone="no"?>
<!-- Created with Inkscape (http://www.inkscape.org/) -->

<svg
   xmlns:dc="http://purl.org/dc/elements/1.1/"
   xmlns:cc="http://creativecommons.org/ns#"
   xmlns:rdf="http://www.w3.org/1999/02/22-rdf-syntax-ns#"
   xmlns:svg="http://www.w3.org/2000/svg"
   xmlns="http://www.w3.org/2000/svg"
   xmlns:sodipodi="http://sodipodi.sourceforge.net/DTD/sodipodi-0.dtd"
   xmlns:inkscape="http://www.inkscape.org/namespaces/inkscape"
   width="50.799999mm"
   height="128.5mm"
   viewBox="0 0 50.8 128.5"
   version="1.1"
   id="svg8"
   inkscape:version="0.92.4 (unknown)"
   sodipodi:docname="KingMod.svg">
  <defs
     id="defs2" />
  <sodipodi:namedview
     id="base"
     pagecolor="#ffffff"
     bordercolor="#666666"
     borderopacity="1.0"
     inkscape:pageopacity="0.0"
     inkscape:pageshadow="2"
     inkscape:zoom="0.98994949"
     inkscape:cx="75.311073"
     inkscape:cy="259.52452"
     inkscape:document-units="mm"
     inkscape:current-layer="layer3"
     showgrid="false"
     inkscape:window-width="1299"
     inkscape:window-height="713"
     inkscape:window-x="67"
     inkscape:window-y="27"
     inkscape:window-maximized="1" />
  <metadata
     id="metadata5">
    <rdf:RDF>
      <cc:Work
         rdf:about="">
        <dc:format>image/svg+xml</dc:format>
        <dc:type
           rdf:resource="http://purl.org/dc/dcmitype/StillImage" />
        <dc:title />
      </cc:Work>
    </rdf:RDF>
  </metadata>
  <g
     inkscape:groupmode="layer"
     id="layer3"
     inkscape:label="bg">
    <rect
       style="fill:#916f6f;stroke-width:0.26458332"
       id="rect57"
       width="51.583019"
       height="129.35844"
       x="-0.26726952"
       y="-0.056643158" />
  </g>
  <g
     inkscape:label="text"
     inkscape:groupmode="layer"
     id="layer1"
     transform="translate(0,-168.5)"
     style="display:inline">
    <text
       xml:space="preserve"
       style="font-style:normal;font-weight:normal;font-size:10.58333302px;line-height:1.25;font-family:sans-serif;letter-spacing:0px;word-spacing:0px;fill:#000000;fill-opacity:1;stroke:none;stroke-width:0.26458332"
       x="19.510675"
       y="182.0741"
       id="text62"><tspan
         sodipodi:role="line"
         id="tspan60"
         x="19.510675"
         y="191.43787"
         style="stroke-width:0.26458332" /></text>
    <g
       aria-label="KING MOD"
       style="font-style:normal;font-weight:normal;font-size:10.58333302px;line-height:1.25;font-family:sans-serif;letter-spacing:0px;word-spacing:0px;fill:#000000;fill-opacity:1;stroke:none;stroke-width:0.26458332"
       id="text66"
       transform="translate(-0.53144813)">
      <path
         d="m 5.8871782,181.25244 v 2.15801 H 5.1016965 v -6.17224 h 0.7854817 v 3.12539 l 3.0757811,-3.12539 h 1.012858 l -2.5135415,2.51354 2.5424802,3.6587 H 9.0704463 l -2.1745442,-3.16674 z"
         style="font-style:normal;font-variant:normal;font-weight:normal;font-stretch:normal;font-size:8.46666622px;line-height:4;font-family:'Mukti Narrow';-inkscape-font-specification:'Mukti Narrow';text-align:center;text-anchor:middle;stroke-width:0.26458332"
         id="path68"
         inkscape:connector-curvature="0" />
      <path
         d="m 11.728682,177.23821 v 6.17224 h -0.79375 v -6.17224 z"
         style="font-style:normal;font-variant:normal;font-weight:normal;font-stretch:normal;font-size:8.46666622px;line-height:4;font-family:'Mukti Narrow';-inkscape-font-specification:'Mukti Narrow';text-align:center;text-anchor:middle;stroke-width:0.26458332"
         id="path70"
         inkscape:connector-curvature="0" />
      <path
         d="m 17.905048,177.23821 v 6.17224 h -0.888834 l -3.191537,-5.00228 v 5.00228 h -0.74414 v -6.17224 h 0.851627 l 3.228744,5.04776 v -5.04776 z"
         style="font-style:normal;font-variant:normal;font-weight:normal;font-stretch:normal;font-size:8.46666622px;line-height:4;font-family:'Mukti Narrow';-inkscape-font-specification:'Mukti Narrow';text-align:center;text-anchor:middle;stroke-width:0.26458332"
         id="path72"
         inkscape:connector-curvature="0" />
      <path
         d="m 21.962687,183.18514 h -3.29076 v -0.50023 l 0.81856,-0.1943 q -0.979791,-0.88057 -0.979791,-2.1084 0,-1.29398 0.96325,-2.09186 0.88057,-0.73588 2.25309,-0.73588 1.49242,0 2.42259,0.86403 0.12816,0.11989 0.23565,0.25218 0.59531,0.72347 0.59531,1.84795 0,1.51722 -1.00046,2.19935 -0.41341,0.28112 -0.97565,0.38447 v -0.80615 q 0.83096,-0.17776 1.13688,-0.98392 0.1447,-0.35553 0.1447,-0.80202 0,-1.11621 -0.88057,-1.71979 -0.66146,-0.44648 -1.63711,-0.44648 -1.0666,0 -1.77767,0.51676 l -0.16123,0.13229 q -0.60771,0.55811 -0.62425,1.55857 0,0.96738 0.678,1.52548 0.50849,0.41342 1.21956,0.41342 h 0.1695 v -1.88103 h 0.6904 z"
         style="font-style:normal;font-variant:normal;font-weight:normal;font-stretch:normal;font-size:8.46666622px;line-height:4;font-family:'Mukti Narrow';-inkscape-font-specification:'Mukti Narrow';text-align:center;text-anchor:middle;stroke-width:0.26458332"
         id="path74"
         inkscape:connector-curvature="0" />
      <path
         d="m 31.444274,183.41045 h -0.826823 l -1.752864,-5.17178 v 5.17178 h -0.744141 v -6.17224 h 1.091406 l 1.827279,5.37435 1.794206,-5.37435 h 1.09554 v 6.17224 h -0.748275 v -5.17178 z"
         style="font-style:normal;font-variant:normal;font-weight:normal;font-stretch:normal;font-size:8.46666622px;line-height:4;font-family:'Mukti Narrow';-inkscape-font-specification:'Mukti Narrow';text-align:center;text-anchor:middle;stroke-width:0.26458332"
         id="path76"
         inkscape:connector-curvature="0" />
      <path
         d="m 37.823211,177.13486 q 1.471744,0 2.294433,1.0418 l 0.0083,0.008 q 0.0083,0.008 0.01654,0.0165 0.508496,0.66973 0.632519,1.63711 0.03721,0.27699 0.03721,0.58291 0,1.25264 -0.694531,2.14147 -0.169499,0.21911 -0.37207,0.38861 -0.773079,0.65319 -1.914095,0.65319 -1.413867,0 -2.244824,-0.99219 -0.735873,-0.88056 -0.735873,-2.24069 0,-1.55856 0.938444,-2.46393 0.806153,-0.77308 2.033985,-0.77308 z m 0,0.69453 q -1.103809,0 -1.711524,0.86403 -0.475423,0.66973 -0.475423,1.67845 0,1.33532 0.806153,2.03812 0.566373,0.50023 1.389062,0.50023 1.091406,0 1.699121,-0.8475 0.49196,-0.65732 0.49196,-1.65777 0,-1.39734 -0.830957,-2.10014 -0.558106,-0.47542 -1.368392,-0.47542 z"
         style="font-style:normal;font-variant:normal;font-weight:normal;font-stretch:normal;font-size:8.46666622px;line-height:4;font-family:'Mukti Narrow';-inkscape-font-specification:'Mukti Narrow';text-align:center;text-anchor:middle;stroke-width:0.26458332"
         id="path78"
         inkscape:connector-curvature="0" />
      <path
         d="m 41.866377,183.41045 v -6.17224 h 2.38125 q 1.380794,0 2.046386,1.11621 0.0083,0.008 0.0083,0.0165 0.458886,0.77308 0.458886,1.94717 0,1.77353 -0.983919,2.57555 -0.615983,0.51677 -1.529622,0.51677 z m 0.789616,-0.69454 h 1.455208 q 1.471745,0 1.785937,-1.53375 0.07855,-0.38034 0.07855,-0.85163 0,-2.08359 -1.42627,-2.35644 -0.21084,-0.0413 -0.438216,-0.0413 h -1.455208 z"
         style="font-style:normal;font-variant:normal;font-weight:normal;font-stretch:normal;font-size:8.46666622px;line-height:4;font-family:'Mukti Narrow';-inkscape-font-specification:'Mukti Narrow';text-align:center;text-anchor:middle;stroke-width:0.26458332"
         id="path80"
         inkscape:connector-curvature="0" />
    </g>
    <text
       xml:space="preserve"
       style="font-style:normal;font-weight:normal;font-size:10.58333302px;line-height:1.25;font-family:sans-serif;letter-spacing:0px;word-spacing:0px;fill:#000000;fill-opacity:1;stroke:none;stroke-width:0.26458332"
       x="74.300934"
       y="211.47375"
       id="text3802"><tspan
         sodipodi:role="line"
         id="tspan3800"
         x="74.300934"
         y="220.83752"
         style="stroke-width:0.26458332" /></text>
    <g
       aria-label="IN "
       transform="matrix(0.26458333,0,0,0.26458333,32.980932,149.78577)"
       style="font-style:normal;font-weight:normal;font-size:18.66666603px;line-height:1.25;font-family:sans-serif;letter-spacing:0px;word-spacing:0px;fill:#000000;fill-opacity:1;stroke:none"
       id="flowRoot3804">
      <path
         d="m -36.554688,171.38802 h 1.841146 v 13.60807 h -1.841146 z"
         id="path3873"
         inkscape:connector-curvature="0" />
      <path
         d="m -31.04948,171.38802 h 2.479167 l 6.033854,11.38411 v -11.38411 h 1.786458 v 13.60807 h -2.479166 l -6.033854,-11.38411 v 11.38411 h -1.786459 z"
         id="path3875"
         inkscape:connector-curvature="0" />
    </g>
    <g
       aria-label="FREQ  "
       transform="matrix(0.26458333,0,0,0.26458333,28.80651,175.63913)"
       style="font-style:normal;font-weight:normal;font-size:18.66666603px;line-height:1.25;font-family:sans-serif;letter-spacing:0px;word-spacing:0px;display:inline;fill:#000000;fill-opacity:1;stroke:none"
       id="flowRoot3804-9">
      <path
         d="m -36.554688,171.38802 h 7.820313 v 1.54948 h -5.979167 v 4.01042 h 5.395833 v 1.54948 h -5.395833 v 6.49869 h -1.841146 z"
         id="path3878"
         inkscape:connector-curvature="0" />
      <path
         d="m -19.346355,178.61589 q 0.592448,0.20052 1.148438,0.85677 0.565104,0.65625 1.130208,1.80468 l 1.86849,3.71875 h -1.977865 l -1.740885,-3.49088 q -0.67448,-1.36719 -1.3125,-1.8138 -0.628907,-0.44662 -1.722657,-0.44662 h -2.005208 v 5.7513 h -1.841146 v -13.60807 h 4.15625 q 2.333334,0 3.481771,0.97526 1.148437,0.97526 1.148437,2.94401 0,1.28516 -0.601562,2.13281 -0.592448,0.84766 -1.731771,1.17579 z m -4.611979,-5.71485 v 4.83073 h 2.315104 q 1.330729,0 2.005209,-0.61068 0.683593,-0.61979 0.683593,-1.8138 0,-1.19401 -0.683593,-1.79557 -0.67448,-0.61068 -2.005209,-0.61068 z"
         id="path3880"
         inkscape:connector-curvature="0" />
      <path
         d="m -12.820313,171.38802 h 8.6041668 v 1.54948 h -6.7630208 v 4.02865 h 6.4804687 v 1.54947 h -6.4804687 v 4.93099 h 6.9270833 v 1.54948 h -8.7682293 z"
         id="path3882"
         inkscape:connector-curvature="0" />
      <path
         d="m 4.5156247,172.63672 q -2.0052082,0 -3.190104,1.49479 -1.17578122,1.49479 -1.17578122,4.07422 0,2.57031 1.17578122,4.0651 1.1848958,1.49479 3.190104,1.49479 2.0052083,0 3.1718749,-1.49479 1.1757813,-1.49479 1.1757813,-4.0651 0,-2.57943 -1.1757813,-4.07422 -1.1666666,-1.49479 -3.1718749,-1.49479 z m 2.579427,12.11328 2.4244791,2.65234 H 7.2955726 l -2.0143229,-2.17838 q -0.3007812,0.0182 -0.4648437,0.0273 -0.1549479,0.009 -0.3007813,0.009 -2.8710936,0 -4.59374979,-1.91407 -1.71354161,-1.92317 -1.71354161,-5.14062 0,-3.22656 1.71354161,-5.14063 1.72265619,-1.92317 4.59374979,-1.92317 2.8619791,0 4.5755207,1.92317 1.7135416,1.91407 1.7135416,5.14063 0,2.36979 -0.9570312,4.05599 -0.9479166,1.6862 -2.7526041,2.48828 z"
         id="path3884"
         inkscape:connector-curvature="0" />
    </g>
    <g
       aria-label="OUT  "
       transform="matrix(0.26458333,0,0,0.26458333,30.149753,227.79367)"
       style="font-style:normal;font-weight:normal;font-size:18.66666603px;line-height:1.25;font-family:sans-serif;letter-spacing:0px;word-spacing:0px;display:inline;fill:#000000;fill-opacity:1;stroke:none"
       id="flowRoot3804-9-9">
      <path
         d="m -31.03125,172.63672 q -2.005209,0 -3.190104,1.49479 -1.175782,1.49479 -1.175782,4.07422 0,2.57031 1.175782,4.0651 1.184895,1.49479 3.190104,1.49479 2.005208,0 3.171875,-1.49479 1.175781,-1.49479 1.175781,-4.0651 0,-2.57943 -1.175781,-4.07422 -1.166667,-1.49479 -3.171875,-1.49479 z m 0,-1.49479 q 2.861979,0 4.57552,1.92317 1.713542,1.91407 1.713542,5.14063 0,3.21745 -1.713542,5.14062 -1.713541,1.91407 -4.57552,1.91407 -2.871094,0 -4.59375,-1.91407 -1.713542,-1.91406 -1.713542,-5.14062 0,-3.22656 1.713542,-5.14063 1.722656,-1.92317 4.59375,-1.92317 z"
         id="path3887"
         inkscape:connector-curvature="0" />
      <path
         d="m -22.071615,171.38802 h 1.85026 v 8.26693 q 0,2.1875 0.792969,3.15364 0.792969,0.95703 2.570313,0.95703 1.768229,0 2.561197,-0.95703 0.792969,-0.96614 0.792969,-3.15364 v -8.26693 h 1.85026 v 8.49479 q 0,2.66146 -1.321614,4.01953 -1.3125,1.35808 -3.882812,1.35808 -2.579427,0 -3.901042,-1.35808 -1.3125,-1.35807 -1.3125,-4.01953 z"
         id="path3889"
         inkscape:connector-curvature="0" />
      <path
         d="M -10.076824,171.38802 H 1.4348942 v 1.54948 h -4.830729 v 12.05859 H -5.2460952 V 172.9375 h -4.8307288 z"
         id="path3891"
         inkscape:connector-curvature="0" />
    </g>
  </g>
  <g
     inkscape:groupmode="layer"
     id="layer2"
     inkscape:label="components"
     style="display:none">
    <circle
       style="fill:#0000ff;stroke-width:0.26458332"
       id="path89"
       cx="25.4"
       cy="116.2056"
       r="4.0090427" />
    <circle
       style="fill:#008000;stroke-width:0.26458332"
       id="input"
       cx="25.4"
       cy="36.425648"
       r="4.1426778" />
    <circle
       style="fill:#ff0000;stroke-width:0.26458332"
       id="freqParam"
       cx="25.4"
       cy="66.938919"
       r="8.0180855" />
    <circle
       style="fill:#008000;stroke-width:0.26458332"
       id="freqCVinput"
       cx="25.4"
       cy="87.830482"
       r="2.271791" />
  </g>
</svg>
